Genre:Action | Adventure | Comedy | Drama | Fantasy
Language:English
IMDb:http://www.imdb.com/title/tt0963966/
Source Video:RelizLab.Thanks
Source Audio:IMAGiNE.Thanks
Encoder: Tony2
.............................................
General
Complete name : The Sorcerers Apprentice TS H264.FEEL-FREE
Format : MPEG-4
Format profile : Base Media
Codec ID : isom
File size : 649 MiB
Duration : 1h 38mn
Overall bit rate : 922 Kbps
.............................................

Video
ID : 1
Format : AVC
Format/Info : Advanced Video Codec
Format profile : Main@L1.3
Format settings, CABAC : Yes
Format settings, ReFrames : 1 frame
Codec ID : avc1
Codec ID/Info : Advanced Video Coding
Duration : 1h 38mn
Bit rate mode : Variable
Bit rate : 766 Kbps
Width : 644 pixels
Height : 302 pixels
Display aspect ratio : 2.2:1
Frame rate mode : Constant
Frame rate : 29.970 fps
Resolution : 24 bits
Colorimetry : 4:2:0
Scan type : Progressive
Bits/(Pixel*Frame) : 0.131
Stream size : 539 MiB (83%)
.............................................
Audio
ID : 2
Format : AAC
Format/Info : Advanced Audio Codec
Format version : Version 4
Format profile : LC
Format settings, SBR : No
Codec ID : 40
Duration : 1h 38mn
Bit rate mode : Variable
Bit rate : 152 Kbps
Channel(s) : 2 channels
Channel positions : L R
Sampling rate : 44.1 KHz
Resolution : 16 bits
Stream size : 107 MiB (16%)
..............................................
Plot:
Master sorcerer Balthazar Blake recruits a seemingly everyday guy in his mission to defend New York City from his arch-nemesis, Maxim Horvath